name Run_20002_IK.mot
datacolumns 164
datarows 4
range 0.19 0.22
endheader
time	         pelvis_tilt	         pelvis_list	     pelvis_rotation	           pelvis_tx	           pelvis_ty	           pelvis_tz	       hip_flexion_r	     hip_adduction_r	      hip_rotation_r	        knee_angle_r	       ankle_angle_r	       hip_flexion_l	     hip_adduction_l	      hip_rotation_l	        knee_angle_l	       ankle_angle_l	    lumbar_extension	      lumbar_bending	     lumbar_rotation	          arm_flex_r	           arm_add_r	           arm_rot_r	        elbow_flex_r	           pro_sup_r	          arm_flex_l	           arm_add_l	           arm_rot_l	        elbow_flex_l	           pro_sup_l	    subtalar_angle_r	         mtp_angle_r	    subtalar_angle_l	         mtp_angle_l	        wrist_flex_r	         wrist_dev_r	        wrist_flex_l	         wrist_dev_l	             LASI_tx	             LASI_ty	             LASI_tz	             RASI_tx	             RASI_ty	             RASI_tz	             LPSI_tx	             LPSI_ty	             LPSI_tz	             RPSI_tx	             RPSI_ty	             RPSI_tz	             RTH1_tx	             RTH1_ty	             RTH1_tz	             RTH2_tx	             RTH2_ty	             RTH2_tz	             RTH3_tx	             RTH3_ty	             RTH3_tz	             LTH1_tx	             LTH1_ty	             LTH1_tz	             LTH2_tx	             LTH2_ty	             LTH2_tz	             LTH3_tx	             LTH3_ty	             LTH3_tz	             RTB1_tx	             RTB1_ty	             RTB1_tz	             RTB2_tx	             RTB2_ty	             RTB2_tz	             RTB3_tx	             RTB3_ty	             RTB3_tz	             LTB1_tx	             LTB1_ty	             LTB1_tz	             LTB2_tx	             LTB2_ty	             LTB2_tz	             LTB3_tx	             LTB3_ty	             LTB3_tz	             RCAL_tx	             RCAL_ty	             RCAL_tz	             RTOE_tx	             RTOE_ty	             RTOE_tz	             RMT5_tx	             RMT5_ty	             RMT5_tz	             LCAL_tx	             LCAL_ty	             LCAL_tz	             LTOE_tx	             LTOE_ty	             LTOE_tz	             LMT5_tx	             LMT5_ty	             LMT5_tz	             LACR_tx	             LACR_ty	             LACR_tz	             RACR_tx	             RACR_ty	             RACR_tz	             CLAV_tx	             CLAV_ty	             CLAV_tz	               C7_tx	               C7_ty	               C7_tz	             RUA1_tx	             RUA1_ty	             RUA1_tz	             RUA2_tx	             RUA2_ty	             RUA2_tz	             RUA3_tx	             RUA3_ty	             RUA3_tz	             RLEL_tx	             RLEL_ty	             RLEL_tz	             RMEL_tx	             RMEL_ty	             RMEL_tz	             LUA1_tx	             LUA1_ty	             LUA1_tz	             LUA2_tx	             LUA2_ty	             LUA2_tz	             LUA3_tx	             LUA3_ty	             LUA3_tz	             LLEL_tx	             LLEL_ty	             LLEL_tz	             LMEL_tx	             LMEL_ty	             LMEL_tz	      RFAsuperior_tx	      RFAsuperior_ty	      RFAsuperior_tz	        RFAradius_tx	        RFAradius_ty	        RFAradius_tz	          RFAulna_tx	          RFAulna_ty	          RFAulna_tz	      LFAsuperior_tx	      LFAsuperior_ty	      LFAsuperior_tz	        LFAradius_tx	        LFAradius_ty	        LFAradius_tz	          LFAulna_tx	          LFAulna_ty	          LFAulna_tz	
0.19	        -11.25663410	          0.46147211	         -4.87404290	          1.08089358	          1.04673614	         -0.35018968	         29.09152229	          3.93045934	          4.75181662	        -10.46093567	          5.75688185	          4.13889131	          5.24615641	          0.45288138	        -34.88158058	         -9.35958294	          0.42404661	          1.05054878	         -4.88201981	        -43.94851446	        -16.84441445	        -15.84783502	         97.09947993	        105.74329345	        -25.53131371	        -13.44882533	         -4.64279850	        130.70829218	         95.98109300	          0.00000000	          0.00000000	          0.00000000	          0.00000000	          0.00000000	          0.00000000	          0.00000000	          0.00000000	          1.10718158	          1.07998718	         -0.47230662	          1.08509068	          1.09123203	         -0.23091592	          0.94434328	          1.14284435	         -0.42476001	          0.93092706	          1.13931918	         -0.31200003	          1.02277097	          0.97039713	         -0.17807955	          1.01264434	          0.81437339	         -0.20405657	          1.09302119	          0.67853094	         -0.20983448	          1.04748035	          0.94526591	         -0.52691354	          0.94109100	          0.80924256	         -0.49193102	          0.96936028	          0.66755455	         -0.47610926	          1.20207397	          0.44240933	         -0.27862170	          1.12837069	          0.38554195	         -0.21272448	          1.19932798	          0.25425332	         -0.29580950	          0.91914935	          0.44042669	         -0.40382638	          0.79109720	          0.40606450	         -0.46470494	          0.76244459	          0.28925006	         -0.40277922	          1.10465215	          0.09674432	         -0.29836276	          1.33765417	          0.15186956	         -0.33189838	          1.30762788	          0.09992066	         -0.24034985	          0.58784984	          0.28080420	         -0.39472520	          0.72398029	          0.09057038	         -0.35702158	          0.67105400	          0.08980572	         -0.45483587	          1.08815836	          1.57582447	         -0.50923097	          1.06719912	          1.55945569	         -0.19098565	          1.13466534	          1.52359167	         -0.31381454	          1.02121414	          1.59546490	         -0.35792802	          0.92696390	          1.50607515	         -0.15689643	          0.94110409	          1.43999547	         -0.11267000	          0.84525664	          1.39373797	         -0.09593913	          0.78869624	          1.34989618	         -0.08186992	          0.80345445	          1.31925771	         -0.16579824	          1.00345285	          1.47711476	         -0.58253758	          1.03785436	          1.40189559	         -0.60103731	          0.97431990	          1.33247270	         -0.63693786	          0.96618440	          1.26314641	         -0.65425051	          0.93208992	          1.24535302	         -0.56848832	          0.84700604	          1.25958106	         -0.05801553	          0.98716897	          1.15169794	         -0.10325674	          0.93488082	          1.12146580	         -0.07044288	          1.03895219	          1.23442337	         -0.62573167	          1.17199156	          1.29453635	         -0.50817816	          1.18863770	          1.22468113	         -0.52261596	
0.2	        -11.06056994	          0.32203843	         -4.77914382	          1.08090006	          1.04282917	         -0.34972023	         28.94408783	          4.13298145	          4.68582207	        -11.28565868	          5.81501439	          5.16816103	          5.11982364	          0.49770090	        -38.86109954	         -9.35607666	          0.19073356	          1.30577218	         -4.67863094	        -43.84084987	        -16.77948821	        -16.12273256	         97.59883171	        105.72488109	        -25.92206084	        -13.44423996	         -4.42808979	        130.32259287	         95.46080302	          0.00000000	          0.00000000	          0.00000000	          0.00000000	          0.00000000	          0.00000000	          0.00000000	          0.00000000	          1.10674271	          1.07639093	         -0.47210464	          1.08547537	          1.08731320	         -0.23032517	          0.94387398	          1.13821171	         -0.42420256	          0.93064936	          1.13499148	         -0.31131214	          1.02262144	          0.96595258	         -0.17739615	          1.01302247	          0.81006183	         -0.20328848	          1.09452136	          0.67451494	         -0.21012382	          1.04903627	          0.94076584	         -0.52572790	          0.94512551	          0.80300446	         -0.49093666	          0.97631175	          0.66184386	         -0.47517324	          1.20089634	          0.43748873	         -0.27945630	          1.12710980	          0.38128301	         -0.21307783	          1.19590072	          0.24932453	         -0.29667115	          0.92344354	          0.43606523	         -0.40327696	          0.79376991	          0.40823212	         -0.46487444	          0.75958673	          0.29247547	         -0.40415743	          1.09918334	          0.09358650	         -0.29906706	          1.33256333	          0.14593193	         -0.33344704	          1.30224121	          0.09339847	         -0.24216588	          0.58478965	          0.29192640	         -0.39611225	          0.71256026	          0.09575972	         -0.35910504	          0.65810402	          0.09670792	         -0.45606790	          1.08729082	          1.57234078	         -0.50776192	          1.06758803	          1.55492473	         -0.18979480	          1.13459039	          1.51935888	         -0.31288910	          1.02092817	          1.59126920	         -0.35623258	          0.92748293	          1.50131034	         -0.15516858	          0.94185160	          1.43532883	         -0.11121376	          0.84612166	          1.38882353	         -0.09424449	          0.78996248	          1.34447180	         -0.08006982	          0.80471434	          1.31388749	         -0.16414975	          1.00159259	          1.47464712	         -0.58087307	          1.03550873	          1.39947016	         -0.60005897	          0.97141768	          1.33060585	         -0.63591127	          0.96302706	          1.26108148	         -0.65330038	          0.92859487	          1.24324155	         -0.56773932	          0.84926711	          1.25476454	         -0.05648373	          0.99035685	          1.14831477	         -0.10207042	          0.93851868	          1.11747137	         -0.06913304	          1.03548841	          1.23107411	         -0.62511657	          1.17002224	          1.28868459	         -0.50795023	          1.18523278	          1.21850396	         -0.52226532	
0.21	        -10.82701192	          0.16300281	         -4.67340155	          1.08087947	          1.03803027	         -0.34934512	         28.82744297	          4.32395829	          4.38569450	        -12.73025514	          5.16846866	          6.28333626	          4.89965523	          0.30727293	        -43.01445172	         -8.84827979	         -0.08072120	          1.58163332	         -4.45973443	        -43.58145483	        -16.81771454	        -16.28744253	         97.99164394	        105.65980417	        -26.30482187	        -13.37579189	         -4.28720513	        129.69939185	         95.26181906	          0.00000000	          0.00000000	          0.00000000	          0.00000000	          0.00000000	          0.00000000	          0.00000000	          0.00000000	          1.10629445	          1.07204317	         -0.47247359	          1.08569628	          1.08229972	         -0.22979562	          0.94340006	          1.13250678	         -0.42360044	          0.93048172	          1.12941274	         -0.31076835	          1.02214262	          0.96074563	         -0.17652976	          1.01346010	          0.80471917	         -0.20306979	          1.09609207	          0.66990055	         -0.21054852	          1.05041478	          0.93546788	         -0.52467048	          0.94922339	          0.79593685	         -0.48971353	          0.98364407	          0.65545629	         -0.47439325	          1.19870770	          0.43098003	         -0.27983194	          1.12430790	          0.37608230	         -0.21311300	          1.19006689	          0.24299752	         -0.29718403	          0.92869688	          0.43114223	         -0.40338413	          0.79742974	          0.41034262	         -0.46507815	          0.75792150	          0.29575685	         -0.40577107	          1.08986309	          0.09174638	         -0.29964080	          1.32418538	          0.13559237	         -0.33510126	          1.29238860	          0.08348523	         -0.24392020	          0.58280812	          0.30273818	         -0.39673866	          0.70357695	          0.10163937	         -0.36198611	          0.64711510	          0.10470045	         -0.45806404	          1.08629712	          1.56766323	         -0.50636811	          1.06800968	          1.54926753	         -0.18863750	          1.13443361	          1.51403713	         -0.31205107	          1.02058118	          1.58607701	         -0.35460681	          0.92803637	          1.49521957	         -0.15316800	          0.94296363	          1.42928587	         -0.10956979	          0.84749182	          1.38233323	         -0.09205726	          0.79179311	          1.33746811	         -0.07768901	          0.80623902	          1.30693775	         -0.16181351	          0.99964199	          1.47111953	         -0.57932159	          1.03294486	          1.39577695	         -0.59897221	          0.96815572	          1.32756838	         -0.63467468	          0.95941596	          1.25794719	         -0.65208948	          0.92523684	          1.24003904	         -0.56682078	          0.85220455	          1.24841935	         -0.05451030	          0.99414459	          1.14354668	         -0.10076752	          0.94289684	          1.11205671	         -0.06763901	          1.03151332	          1.22640858	         -0.62450301	          1.16781267	          1.28082068	         -0.50781063	          1.18153339	          1.21046157	         -0.52245827	
0.22	        -10.54567565	          0.00635656	         -4.59244691	          1.08084912	          1.03235812	         -0.34893037	         28.72429928	          4.48463786	          3.69437918	        -14.70153910	          3.91634978	          7.44630312	          4.57030835	         -0.14100081	        -47.25698527	         -7.88194879	         -0.39323732	          1.84422334	         -4.17443487	        -43.18543209	        -16.93714892	        -16.33740662	         98.27151186	        105.58776074	        -26.66490690	        -13.28505585	         -4.18084230	        128.86049217	         95.41809252	          0.00000000	          0.00000000	          0.00000000	          0.00000000	          0.00000000	          0.00000000	          0.00000000	          0.00000000	          1.10600101	          1.06675108	         -0.47292947	          1.08576624	          1.07625538	         -0.22923289	          0.94285481	          1.12585461	         -0.42290856	          0.93025569	          1.12254622	         -0.31019341	          1.02151998	          0.95467526	         -0.17579128	          1.01341717	          0.79845095	         -0.20332496	          1.09716076	          0.66438682	         -0.21072483	          1.05158354	          0.92943658	         -0.52379993	          0.95341063	          0.78809597	         -0.48844456	          0.99120248	          0.64843372	         -0.47399466	          1.19576996	          0.42309642	         -0.27970105	          1.11979816	          0.36991956	         -0.21324210	          1.18205516	          0.23529210	         -0.29749994	          0.93484075	          0.42578315	         -0.40445479	          0.80204514	          0.41233329	         -0.46531297	          0.75760332	          0.29893261	         -0.40748248	          1.07723866	          0.09140908	         -0.30086788	          1.31307316	          0.12111925	         -0.33659147	          1.27840921	          0.07155895	         -0.24497177	          0.58212923	          0.31307664	         -0.39660251	          0.69704802	          0.10789078	         -0.36563781	          0.63867740	          0.11360409	         -0.46085726	          1.08508043	          1.56189464	         -0.50502861	          1.06845987	          1.54253890	         -0.18750726	          1.13419089	          1.50765567	         -0.31133517	          1.02009517	          1.57989686	         -0.35306597	          0.92871221	          1.48790038	         -0.15072899	          0.94447024	          1.42188171	         -0.10776537	          0.84939073	          1.37429586	         -0.08941989	          0.79419856	          1.32893351	         -0.07478675	          0.80802918	          1.29848287	         -0.15876926	          0.99752845	          1.46644264	         -0.57784453	          1.03018267	          1.39081301	         -0.59779073	          0.96464800	          1.32329741	         -0.63328911	          0.95539081	          1.25372065	         -0.65070243	          0.92203028	          1.23571215	         -0.56579645	          0.85578117	          1.24057992	         -0.05214423	          0.99851857	          1.13740869	         -0.09942549	          0.94797505	          1.10524888	         -0.06595633	          1.02704927	          1.22043889	         -0.62392980	          1.16531627	          1.27110618	         -0.50764895	          1.17746865	          1.20063365	         -0.52316623	
